{
  "asset": {
    "version": "2.0",
    "generator": "THREE.GLTFExporter r186"
  },
  "scenes": [
    {
      "nodes": [
        0,
        1,
        2,
        3
      ]
    }
  ],
  "scene": 0,
  "nodes": [
    {
      "matrix": [
        1,
        0,
        0,
        0,
        0,
        -1,
        1.2246467991473532e-16,
        0,
        0,
        -1.2246467991473532e-16,
        -1,
        0,
        0,
        -1.2,
        0,
        1
      ],
      "mesh": 0
    },
    {
      "matrix": [
        1,
        0,
        0,
        0,
        0,
        1,
        0,
        0,
        0,
        0,
        1,
        0,
        0,
        0.3,
        0,
        1
      ],
      "mesh": 1
    },
    {
      "matrix": [
        1,
        0,
        0,
        0,
        0,
        1,
        0,
        0,
        0,
        0,
        1,
        0,
        0.34,
        1.18,
        0.2,
        1
      ],
      "mesh": 2
    },
    {
      "matrix": [
        1,
        0,
        0,
        0,
        0,
        1,
        0,
        0,
        0,
        0,
        1,
        0,
        0,
        1.68,
        0,
        1
      ],
      "mesh": 3
    }
  ],
  "bufferViews": [
    {
      "buffer": 0,
      "byteOffset": 0,
      "byteLength": 1176,
      "target": 34962,
      "byteStride": 12
    },
    {
      "buffer": 0,
      "byteOffset": 1176,
      "byteLength": 1176,
      "target": 34962,
      "byteStride": 12
    },
    {
      "buffer": 0,
      "byteOffset": 2352,
      "byteLength": 784,
      "target": 34962,
      "byteStride": 8
    },
    {
      "buffer": 0,
      "byteOffset": 3136,
      "byteLength": 288,
      "target": 34963
    },
    {
      "buffer": 0,
      "byteOffset": 3424,
      "byteLength": 19404,
      "target": 34962,
      "byteStride": 12
    },
    {
      "buffer": 0,
      "byteOffset": 22828,
      "byteLength": 19404,
      "target": 34962,
      "byteStride": 12
    },
    {
      "buffer": 0,
      "byteOffset": 42232,
      "byteLength": 12936,
      "target": 34962,
      "byteStride": 8
    },
    {
      "buffer": 0,
      "byteOffset": 55168,
      "byteLength": 17856,
      "target": 34963
    },
    {
      "buffer": 0,
      "byteOffset": 73024,
      "byteLength": 5100,
      "target": 34962,
      "byteStride": 12
    },
    {
      "buffer": 0,
      "byteOffset": 78124,
      "byteLength": 5100,
      "target": 34962,
      "byteStride": 12
    },
    {
      "buffer": 0,
      "byteOffset": 83224,
      "byteLength": 3400,
      "target": 34962,
      "byteStride": 8
    },
    {
      "buffer": 0,
      "byteOffset": 86624,
      "byteLength": 4320,
      "target": 34963
    },
    {
      "buffer": 0,
      "byteOffset": 90944,
      "byteLength": 5100,
      "target": 34962,
      "byteStride": 12
    },
    {
      "buffer": 0,
      "byteOffset": 96044,
      "byteLength": 5100,
      "target": 34962,
      "byteStride": 12
    },
    {
      "buffer": 0,
      "byteOffset": 101144,
      "byteLength": 3400,
      "target": 34962,
      "byteStride": 8
    },
    {
      "buffer": 0,
      "byteOffset": 104544,
      "byteLength": 4320,
      "target": 34963
    }
  ],
  "buffers": [
    {
      "byteLength": 108864,
      "uri": "data:application/octet-stream;base64,"
    }
  ],
  "accessors": [
    {
      "bufferView": 0,
      "componentType": 5126,
      "count": 98,
      "max": [
        0.8999999761581421,
        1.100000023841858,
        0.8999999761581421
      ],
      "min": [
        -0.8999999761581421,
        -1.100000023841858,
        -0.8999999761581421
      ],
      "type": "VEC3"
    },
    {
      "bufferView": 1,
      "componentType": 5126,
      "count": 98,
      "max": [
        0.9255469441413879,
        0.3786328434944153,
        0.9255469441413879
      ],
      "min": [
        -0.9255469441413879,
        0.3786328434944153,
        -0.9255469441413879
      ],
      "type": "VEC3"
    },
    {
      "bufferView": 2,
      "componentType": 5126,
      "count": 98,
      "max": [
        1,
        1
      ],
      "min": [
        0,
        0
      ],
      "type": "VEC2"
    },
    {
      "bufferView": 3,
      "componentType": 5123,
      "count": 144,
      "max": [
        97
      ],
      "min": [
        1
      ],
      "type": "SCALAR"
    },
    {
      "bufferView": 4,
      "componentType": 5126,
      "count": 1617,
      "max": [
        0.949999988079071,
        0.949999988079071,
        0.949999988079071
      ],
      "min": [
        -0.949999988079071,
        -0.949999988079071,
        -0.949999988079071
      ],
      "type": "VEC3"
    },
    {
      "bufferView": 5,
      "componentType": 5126,
      "count": 1617,
      "max": [
        1,
        1,
        1
      ],
      "min": [
        -1,
        -1,
        -1
      ],
      "type": "VEC3"
    },
    {
      "bufferView": 6,
      "componentType": 5126,
      "count": 1617,
      "max": [
        1.0104166269302368,
        1
      ],
      "min": [
        -0.010416666977107525,
        0
      ],
      "type": "VEC2"
    },
    {
      "bufferView": 7,
      "componentType": 5123,
      "count": 8928,
      "max": [
        1616
      ],
      "min": [
        0
      ],
      "type": "SCALAR"
    },
    {
      "bufferView": 8,
      "componentType": 5126,
      "count": 425,
      "max": [
        0.3799999952316284,
        0.3799999952316284,
        0.3799999952316284
      ],
      "min": [
        -0.3799999952316284,
        -0.3799999952316284,
        -0.3799999952316284
      ],
      "type": "VEC3"
    },
    {
      "bufferView": 9,
      "componentType": 5126,
      "count": 425,
      "max": [
        1,
        1,
        1
      ],
      "min": [
        -1,
        -1,
        -1
      ],
      "type": "VEC3"
    },
    {
      "bufferView": 10,
      "componentType": 5126,
      "count": 425,
      "max": [
        1.0208333730697632,
        1
      ],
      "min": [
        -0.02083333395421505,
        0
      ],
      "type": "VEC2"
    },
    {
      "bufferView": 11,
      "componentType": 5123,
      "count": 2160,
      "max": [
        424
      ],
      "min": [
        0
      ],
      "type": "SCALAR"
    },
    {
      "bufferView": 12,
      "componentType": 5126,
      "count": 425,
      "max": [
        0.25999999046325684,
        0.25999999046325684,
        0.25999999046325684
      ],
      "min": [
        -0.25999999046325684,
        -0.25999999046325684,
        -0.25999999046325684
      ],
      "type": "VEC3"
    },
    {
      "bufferView": 13,
      "componentType": 5126,
      "count": 425,
      "max": [
        1,
        1,
        1
      ],
      "min": [
        -1,
        -1,
        -1
      ],
      "type": "VEC3"
    },
    {
      "bufferView": 14,
      "componentType": 5126,
      "count": 425,
      "max": [
        1.0208333730697632,
        1
      ],
      "min": [
        -0.02083333395421505,
        0
      ],
      "type": "VEC2"
    },
    {
      "bufferView": 15,
      "componentType": 5123,
      "count": 2160,
      "max": [
        424
      ],
      "min": [
        0
      ],
      "type": "SCALAR"
    }
  ],
  "materials": [
    {
      "pbrMetallicRoughness": {
        "baseColorFactor": [
          0.6938717612856897,
          0.37626212298046485,
          0.11443537381770343,
          1
        ],
        "metallicFactor": 0,
        "roughnessFactor": 0.75
      },
      "name": "cone"
    },
    {
      "pbrMetallicRoughness": {
        "baseColorFactor": [
          1,
          0.2746773120495699,
          0.4396571738310091,
          1
        ],
        "metallicFactor": 0,
        "roughnessFactor": 0.32
      },
      "name": "scoop"
    },
    {
      "pbrMetallicRoughness": {
        "baseColorFactor": [
          1,
          0.2746773120495699,
          0.4396571738310091,
          1
        ],
        "metallicFactor": 0,
        "roughnessFactor": 0.4
      },
      "name": "tip"
    },
    {
      "pbrMetallicRoughness": {
        "baseColorFactor": [
          0.5394794890033748,
          0.02028856305209031,
          0.05286064701616471,
          1
        ],
        "metallicFactor": 0,
        "roughnessFactor": 0.18
      },
      "name": "cherry"
    }
  ],
  "meshes": [
    {
      "primitives": [
        {
          "mode": 4,
          "attributes": {
            "POSITION": 0,
            "NORMAL": 1,
            "TEXCOORD_0": 2
          },
          "indices": 3,
          "material": 0
        }
      ]
    },
    {
      "primitives": [
        {
          "mode": 4,
          "attributes": {
            "POSITION": 4,
            "NORMAL": 5,
            "TEXCOORD_0": 6
          },
          "indices": 7,
          "material": 1
        }
      ]
    },
    {
      "primitives": [
        {
          "mode": 4,
          "attributes": {
            "POSITION": 8,
            "NORMAL": 9,
            "TEXCOORD_0": 10
          },
          "indices": 11,
          "material": 2
        }
      ]
    },
    {
      "primitives": [
        {
          "mode": 4,
          "attributes": {
            "POSITION": 12,
            "NORMAL": 13,
            "TEXCOORD_0": 14
          },
          "indices": 15,
          "material": 3
        }
      ]
    }
  ]
}